<svg width="308" height="72" viewBox="0 0 308 72" fill="none" xmlns="http://www.w3.org/2000/svg">
<path d="M95.5833 33.6563H73.2292L68.3958 43.3125H64L82.3333 7.20001H86.5208L104.875 43.3125H100.396L95.5833 33.6563ZM94.0417 30.5625L84.3958 11.175L74.7708 30.5625H94.0417Z" fill="black"/>
<path d="M138.917 43.3125L129.75 31.7063C128.719 31.8094 127.651 31.8563 126.542 31.8563H115.75V43.3125H111.521V7.20001H126.542C131.667 7.20001 135.677 8.30157 138.583 10.5C141.485 12.7031 142.938 15.7266 142.938 19.575C142.938 22.4016 142.136 24.7875 140.542 26.7375C138.958 28.6781 136.698 30.075 133.771 30.9375L143.563 43.3125H138.917ZM126.417 28.6125C130.386 28.6125 133.422 27.8203 135.521 26.2313C137.63 24.6469 138.688 22.425 138.688 19.575C138.688 16.65 137.63 14.4094 135.521 12.8438C133.422 11.2828 130.386 10.5 126.417 10.5H115.75V28.6125H126.417Z" fill="black"/>
<path d="M186.323 7.20001L168.553 43.3125H164.365L146.594 7.20001H151.178L166.553 38.5688L182.032 7.20001H186.323Z" fill="black"/>
<path d="M216.087 33.6563H193.733L188.9 43.3125H184.504L202.837 7.20001H207.025L225.379 43.3125H220.9L216.087 33.6563ZM214.546 30.5625L204.9 11.175L195.275 30.5625H214.546Z" fill="black"/>
<path d="M257.707 33.6563H235.353L230.52 43.3125H226.124L244.457 7.20001H248.645L266.999 43.3125H262.52L257.707 33.6563ZM256.166 30.5625L246.52 11.175L236.895 30.5625H256.166Z" fill="black"/>
<path d="M307.187 7.20001V43.3125H303.687L277.874 14.0063V43.3125H273.645V7.20001H277.145L302.999 36.5063V7.20001H307.187Z" fill="black"/>
<path d="M31.0638 38.4169L27.5853 35.1938L27.5552 35.1806H27.6013L65.2306 0H39.0894L14.0487 22.7269L9.34505 26.9794L0.0622602 35.4131H0V72L16.7741 49.86L39.2119 72H67L31.0638 38.4169Z" fill="black"/>
<mask id="mask0_2004_112" style="mask-type:luminance" maskUnits="userSpaceOnUse" x="0" y="0" width="34" height="31">
<path d="M0 0H33.4197V30.96H0V0Z" fill="white"/>
</mask>
<g mask="url(#mask0_2004_112)">
<path d="M33.0003 0L0.197266 30.7805V0H33.0003Z" fill="#9F8FFC"/>
</g>
<path d="M112.962 66.3V56.5H113.564L118.114 64.354H117.792L122.328 56.5H122.916L122.93 66.3H122.23L122.216 57.578H122.412L118.114 64.998H117.764L113.452 57.578H113.662V66.3H112.962ZM124.709 66.3L129.217 56.5H129.931L134.439 66.3H133.669L129.413 56.948H129.721L125.479 66.3H124.709ZM126.361 63.542L126.599 62.94H132.465L132.703 63.542H126.361ZM136.218 66.3V56.5H136.82L143.806 65.418H143.484V56.5H144.198V66.3H143.61L136.61 57.382H136.932V66.3H136.218ZM145.982 66.3L150.49 56.5H151.204L155.712 66.3H154.942L150.686 56.948H150.994L146.752 66.3H145.982ZM147.634 63.542L147.872 62.94H153.738L153.976 63.542H147.634ZM161.54 66.37C160.803 66.37 160.122 66.2487 159.496 66.006C158.871 65.754 158.325 65.404 157.858 64.956C157.401 64.508 157.046 63.9853 156.794 63.388C156.542 62.7813 156.416 62.1187 156.416 61.4C156.416 60.6813 156.542 60.0233 156.794 59.426C157.046 58.8193 157.406 58.292 157.872 57.844C158.339 57.396 158.88 57.0507 159.496 56.808C160.122 56.556 160.808 56.43 161.554 56.43C162.264 56.43 162.922 56.542 163.528 56.766C164.135 56.99 164.653 57.326 165.082 57.774L164.634 58.25C164.205 57.83 163.734 57.5313 163.22 57.354C162.716 57.1767 162.166 57.088 161.568 57.088C160.934 57.088 160.346 57.1953 159.804 57.41C159.263 57.6247 158.792 57.928 158.39 58.32C157.989 58.712 157.676 59.1693 157.452 59.692C157.238 60.2147 157.13 60.784 157.13 61.4C157.13 62.016 157.238 62.5853 157.452 63.108C157.676 63.6307 157.989 64.088 158.39 64.48C158.792 64.872 159.263 65.1753 159.804 65.39C160.346 65.6047 160.934 65.712 161.568 65.712C162.147 65.712 162.693 65.6233 163.206 65.446C163.729 65.2687 164.205 64.9747 164.634 64.564L165.04 65.11C164.602 65.53 164.074 65.8473 163.458 66.062C162.852 66.2673 162.212 66.37 161.54 66.37ZM164.354 65.04V61.442H165.04V65.11L164.354 65.04ZM168.813 61.008H174.119V61.638H168.813V61.008ZM168.897 65.656H174.945V66.3H168.183V56.5H174.735V57.144H168.897V65.656ZM183.328 66.3L179.996 56.5H180.752L183.916 65.866H183.538L186.8 56.5H187.486L190.72 65.866H190.356L193.548 56.5H194.248L190.93 66.3H190.174L187.038 57.242H187.22L184.084 66.3H183.328ZM196.306 66.3V56.5H197.02V66.3H196.306ZM202.311 66.3V57.144H198.783V56.5H206.553V57.144H203.025V66.3H202.311ZM215.589 56.5H216.303V66.3H215.589V56.5ZM209.037 66.3H208.323V56.5H209.037V66.3ZM215.673 61.638H208.953V61.008H215.673V61.638ZM223.951 61.008H229.257V61.638H223.951V61.008ZM224.035 65.656H230.083V66.3H223.321V56.5H229.873V57.144H224.035V65.656ZM231.049 66.3L235.557 56.5H236.271L240.779 66.3H240.009L235.753 56.948H236.061L231.819 66.3H231.049ZM232.701 63.542L232.939 62.94H238.805L239.043 63.542H232.701ZM245.134 66.37C244.406 66.37 243.715 66.2487 243.062 66.006C242.418 65.754 241.918 65.432 241.564 65.04L241.886 64.508C242.222 64.8533 242.679 65.1473 243.258 65.39C243.846 65.6233 244.466 65.74 245.12 65.74C245.773 65.74 246.305 65.656 246.716 65.488C247.136 65.3107 247.444 65.0773 247.64 64.788C247.845 64.4987 247.948 64.1767 247.948 63.822C247.948 63.402 247.836 63.066 247.612 62.814C247.388 62.562 247.094 62.3613 246.73 62.212C246.366 62.0627 245.969 61.9367 245.54 61.834C245.11 61.7313 244.676 61.624 244.238 61.512C243.799 61.3907 243.398 61.2367 243.034 61.05C242.67 60.8633 242.376 60.6113 242.152 60.294C241.937 59.9673 241.83 59.5473 241.83 59.034C241.83 58.5673 241.951 58.138 242.194 57.746C242.436 57.354 242.814 57.0367 243.328 56.794C243.841 56.5513 244.499 56.43 245.302 56.43C245.843 56.43 246.375 56.5093 246.898 56.668C247.43 56.8267 247.882 57.0413 248.256 57.312L247.99 57.886C247.579 57.606 247.136 57.4007 246.66 57.27C246.193 57.13 245.74 57.06 245.302 57.06C244.676 57.06 244.158 57.1487 243.748 57.326C243.337 57.5033 243.034 57.7413 242.838 58.04C242.642 58.3293 242.544 58.656 242.544 59.02C242.544 59.44 242.651 59.776 242.866 60.028C243.09 60.28 243.384 60.4807 243.748 60.63C244.112 60.7793 244.513 60.9053 244.952 61.008C245.39 61.1107 245.824 61.2227 246.254 61.344C246.683 61.456 247.08 61.6053 247.444 61.792C247.808 61.9787 248.102 62.2307 248.326 62.548C248.55 62.8653 248.662 63.276 248.662 63.78C248.662 64.2373 248.536 64.6667 248.284 65.068C248.032 65.46 247.644 65.7773 247.122 66.02C246.608 66.2533 245.946 66.37 245.134 66.37ZM251.719 61.008H257.025V61.638H251.719V61.008ZM251.803 65.656H257.851V66.3H251.089V56.5H257.641V57.144H251.803V65.656Z" fill="black"/>
</svg>
